<svg width="71" height="69" viewBox="0 0 71 69" fill="none" xmlns="http://www.w3.org/2000/svg">
<path d="M53.7171 5.27003L54.1216 7.2287L53.7171 5.27003ZM17.2845 41.3661L15.3297 40.9434V40.9434L17.2845 41.3661ZM10.0698 68.0421C10.6682 68.9706 11.9059 69.2382 12.8344 68.6398L27.9647 58.8892C28.8931 58.2909 29.1607 57.0531 28.5624 56.1247C27.964 55.1962 26.7263 54.9286 25.7979 55.5269L12.3487 64.1941L3.68149 50.745C3.08314 49.8165 1.84542 49.5489 0.916949 50.1473C-0.0115198 50.7456 -0.279139 51.9833 0.319209 52.9118L10.0698 68.0421ZM69.751 1.95868L69.3465 1.27417e-05L65.338 0.82785L65.7425 2.78652L66.147 4.74518L70.1555 3.91735L69.751 1.95868ZM57.7255 4.44219L57.321 2.48353L53.3126 3.31136L53.7171 5.27003L54.1216 7.2287L58.1301 6.40086L57.7255 4.44219ZM53.7171 5.27003L53.3126 3.31136C51.7631 3.63136 50.2408 4.02351 48.7491 4.48425L49.3394 6.39516L49.9297 8.30608C51.2995 7.88296 52.6979 7.52272 54.1216 7.2287L53.7171 5.27003ZM41.011 9.87636L40.0657 8.11386C37.2829 9.60642 34.6629 11.3586 32.2376 13.3389L33.5026 14.8881L34.7675 16.4373C36.9951 14.6185 39.4011 13.0093 41.9563 11.6389L41.011 9.87636ZM27.0898 21.2417L25.5524 19.9624C23.5497 22.3693 21.7732 24.9728 20.2549 27.7417L22.0085 28.7033L23.7622 29.6649C25.1563 27.1225 26.7877 24.7315 28.6271 22.5209L27.0898 21.2417ZM18.4502 36.999L16.5449 36.3911C16.0703 37.8783 15.664 39.397 15.3297 40.9434L17.2845 41.3661L19.2393 41.7887C19.5466 40.3678 19.9198 38.9728 20.3556 37.607L18.4502 36.999ZM17.2845 41.3661L15.3297 40.9434L14.638 44.1425L16.5928 44.5651L18.5477 44.9878L19.2393 41.7887L17.2845 41.3661ZM15.2094 50.9633L13.2546 50.5406L11.8712 56.9388L13.826 57.3614L15.7809 57.7841L17.1643 51.386L15.2094 50.9633ZM12.4427 63.7596L10.4878 63.3369L9.79615 66.536L11.751 66.9587L13.7058 67.3813L14.3975 64.1823L12.4427 63.7596ZM53.7171 5.27003L54.1216 7.2287L53.7171 5.27003ZM17.2845 41.3661L15.3297 40.9434V40.9434L17.2845 41.3661ZM10.0698 68.0421C10.6682 68.9706 11.9059 69.2382 12.8344 68.6398L27.9647 58.8892C28.8931 58.2909 29.1607 57.0531 28.5624 56.1247C27.964 55.1962 26.7263 54.9286 25.7979 55.5269L12.3487 64.1941L3.68149 50.745C3.08314 49.8165 1.84542 49.5489 0.916949 50.1473C-0.0115198 50.7456 -0.279139 51.9833 0.319209 52.9118L10.0698 68.0421ZM69.751 1.95868L69.3465 1.27417e-05L65.338 0.82785L65.7425 2.78652L66.147 4.74518L70.1555 3.91735L69.751 1.95868ZM57.7255 4.44219L57.321 2.48353L53.3126 3.31136L53.7171 5.27003L54.1216 7.2287L58.1301 6.40086L57.7255 4.44219ZM53.7171 5.27003L53.3126 3.31136C51.7631 3.63136 50.2408 4.02351 48.7491 4.48425L49.3394 6.39516L49.9297 8.30608C51.2995 7.88296 52.6979 7.52272 54.1216 7.2287L53.7171 5.27003ZM41.011 9.87636L40.0657 8.11386C37.2829 9.60642 34.6629 11.3586 32.2376 13.3389L33.5026 14.8881L34.7675 16.4373C36.9951 14.6185 39.4011 13.0093 41.9563 11.6389L41.011 9.87636ZM27.0898 21.2417L25.5524 19.9624C23.5497 22.3693 21.7732 24.9728 20.2549 27.7417L22.0085 28.7033L23.7622 29.6649C25.1563 27.1225 26.7877 24.7315 28.6271 22.5209L27.0898 21.2417ZM18.4502 36.999L16.5449 36.3911C16.0703 37.8783 15.664 39.397 15.3297 40.9434L17.2845 41.3661L19.2393 41.7887C19.5466 40.3678 19.9198 38.9728 20.3556 37.607L18.4502 36.999ZM17.2845 41.3661L15.3297 40.9434L14.638 44.1425L16.5928 44.5651L18.5477 44.9878L19.2393 41.7887L17.2845 41.3661ZM15.2094 50.9633L13.2546 50.5406L11.8712 56.9388L13.826 57.3614L15.7809 57.7841L17.1643 51.386L15.2094 50.9633ZM12.4427 63.7596L10.4878 63.3369L9.79615 66.536L11.751 66.9587L13.7058 67.3813L14.3975 64.1823L12.4427 63.7596Z" fill="black"/>
</svg>
